/* XPM */
static char *test_18[] = {
/* columns rows colors chars-per-pixel */
"50 50 17 1 ",
"  c #FD761A",
". c #FE771B",
"X c #FD781B",
"o c #FF781C",
"O c #FE791C",
"+ c #FF791D",
"@ c #FF7A1D",
"# c #FF7A1E",
"$ c #FF7B1E",
"% c #FF7B1F",
"& c #FE7C1E",
"* c #FF7C1F",
"= c #FF7D1F",
"- c #FE7B20",
"; c #FE7B21",
": c #FF7C21",
"> c #FF7C22",
/* pixels */
"+++++++++++$+$$$XXXX$X$$$$$$$$$$$$$$X$$$$$=$&&&&&&",
"++++++++++$+$+X$$$X$XX$XX$$$$$$$$$X$X$$$$:$=&&&&&&",
". ++++++$$X$XX$$$X$$$$$$$$$$$$$$$$$$$$$$$$=&&&&&&&",
"...+++:+$$$+$$$X$$$$$$$$$$$$$$$$$$$$$$$$$$&&&&&&&&",
"...++++++$+$X$$$X$$$$$$$$$$$$$$$$$$$$$$$$$&&&&&&&&",
"..+.++++$$$+$$XXX$$$$$$$$$$$$$$$$$$$$$$$$$&&&&&&&&",
".+..+.++++$$$X$$$$$$$$$$$$$$$$$$$$$$$$$$$$&&&&&&&&",
"+....+X+++XX$$X$$X$$$$$$$$$$$$$$$$$$$$$$$$&&&&&&&&",
".+.......+++$X$$X$$$$$$$$$$$$$$$$$$$$$$$&&&&&&&&&&",
"++......+.$+$X$X$$$$$$$$$$$$$$$$$$$$$$$$&&&&-&--&&",
".........X+$$$X$$X$$$$$$$$$$$$$XX$$$$$$$&&;;--;;--",
".........X$+X$$$$$$$$$$$$$$XXX$$$$$$$$$$-+>---;;--",
"..........$$X$$XXX$$$$$$$$$$$$$X$X$$$$$$++:-;;;;--",
"..........X$X$$X$$$$$$$$$$XX$X$$+$$$$$$$+---;;;;>-",
"..........X+$$$$X$$$$$$$$$$$X$X$$+$$$$$$:+>;;;>-->",
"..........+$$XX$$$$$$$$$$$X$$$X$++$$$$$$$-;;;>->>-",
".........X$X$XX$$$$$$$$$$$$$XX$$$@$$$$$$$$-->->---",
".........X$$$$$$X$$$$$$$$$$$$$$X$$$$$$$$$$----->--",
"..    . ..X$X$$XX$X$$$$$$$$$$$$$$$$:$$==$:>>>>>>>>",
"..    ..  $$X$$X$$X$X$$$$$$$$$$$$$==$$:$=:>>>>>>>>",
"+.........XXX$$$$X$$X$$$$$$$$$$$$$:$:=$::$>>>>>>>>",
".+........$+$$X$$$X$X$$$:$$$$$$$$$$=$$==$=>>>>>>>>",
"+.+..+X+X++$$X$XXX$$$$$$$=$$$$$$$$$==$=$==:>>>>>>>",
".+.++X+X+X$X$X$$$$$X$X$$=$$$$$$$$$=$:=$::$::>>>>>>",
"+.+.+.+.X++$+$X$@@@@$$$$:$$$$$$$$$:$=:$=$:>>>>>>>>",
".++++++++X++$X$$@@@@$$$$$=$$$$$$$$$==$=$=::=>:>=>>",
"..........$X$$XX@@$$$$$$$$$$$$$$$$$=$$=::$&&---&-&",
"........XX$$X$$$@@$$$$$$$$$$$$$$$$=$=:$=$=&&&&&&-&",
"+.........X+@@@@@@$$$$$$$$$$$$$$$$=:=$$===&&&&&&&&",
".+........+$@@@@@@$$$$$$$$$$$$$$$$$=$:=$:$&&&&&&&&",
"++......X.@@@@@@@@$$$$$$$$$$$$$$$$:==:=::=&&&&&&&&",
"++......XX@@@@@@@@$$$$$$$$$$$$$$$$$$=$$=$$&&&&&&&&",
"++........+$XX$$@@$$$$$$$$$$$$$$$$$$=$==$=&&&&&&&&",
"++........$+$$$X@@$$$$$$$$$$$$$$$$$=$=:$$:&=&&&&&-",
"...+.++++++$$$$X@@$$$$$$$$$$$$$$$$$$$$$$$$========",
"...++.++++++XX$$@@$$$$$$$$$$$$$$$$$$$$$$$$========",
"...+.++++$$$$$$X@@$$$$$$$$$$$$$$$$$$$$$$$$========",
"....+.+++$XX$X$$@@$$$$$$$$$$$$$$$$$$$$$$$$========",
"...+.+++++$$X$X$@@$$$$$$$$$$$$$$$$$$$$$$$$========",
"....+.+++$X$$$X$@@$$$$$$$$$$$$$$$$$$$$$$$$========",
"..XXX++++++$XX$$@@$$$$$$$$$$$$$$$$$$$$$$$$========",
"..XX+X+$+$$+$$$X@@$$$$$$$$$$$$$$$$$$$$$:$$==:=:=:=",
"+$$$++XX+X$$$$$$$$$$$$$$$$&&&&&&&&========::>:::>:",
"+$$$X$$X+X$$$$$$$$$$$$$$$$&&&&&&&&========::>>>:>>",
"+$$+@@XXXX@@$$X$@@$$$$$$$$&&&&&&&&========>>>>>>>>",
"$$$$@@X$XX@@X$X$@@$$$$$$$$&&&&&&&&========>>>>>>>>",
"$$$X@@X$$XX$X$+X@X$$$$$$$$&&&&&&&&========>>>>>>>>",
"X$$$$$XXXXX$XXX$X&$$$$$$$$&&&&&&&&========>>>>>>>>",
"$$$$$$XXXXXXXXXXXX$$$$$$$$$=$&&&&&========:>>>>>>>",
"$$$XX$X+$XXXXXXXXX$$$$$$$$$$&&&&&&========::>>>>>>"
};
