/* XPM */
static char *mur_42[] = {
/* columns rows colors chars-per-pixel */
"50 50 109 2 ",
"   c #05344C",
".  c #0A354C",
"X  c #10374C",
"o  c #1C374B",
"O  c #17384C",
"+  c #1B384D",
"@  c #253A4B",
"#  c #2A3B4B",
"$  c #353D4B",
"%  c #3C3F4B",
"&  c #4A4349",
"*  c #5E4B47",
"=  c #544749",
"-  c #5C4A49",
";  c #4E5556",
":  c #535555",
">  c #5B5653",
",  c #545856",
"<  c #5C5955",
"1  c #6D5A4F",
"2  c #725546",
"3  c #7D5B45",
"4  c #735C4E",
"5  c #7A5E4D",
"6  c #635751",
"7  c #645A53",
"8  c #6B5B51",
"9  c #725E51",
"0  c #7D614D",
"q  c #6D6055",
"w  c #746152",
"e  c #7B6351",
"r  c #AC763F",
"t  c #AC793F",
"y  c #B47E3F",
"u  c #B97F3F",
"i  c #805D45",
"p  c #84634C",
"a  c #8B664A",
"s  c #85684F",
"d  c #8C694D",
"f  c #906543",
"g  c #956A46",
"h  c #9C6D46",
"j  c #906749",
"k  c #936A4A",
"l  c #996E49",
"z  c #9F7046",
"x  c #9D7149",
"c  c #816650",
"v  c #A47245",
"b  c #AA7644",
"n  c #AE7943",
"m  c #A17348",
"M  c #B37C41",
"N  c #B87F40",
"B  c #B4803F",
"V  c #BC823E",
"C  c #C2863D",
"Z  c #C5893C",
"A  c #CB8D3B",
"S  c #CE913B",
"D  c #DD9A37",
"F  c #D49339",
"G  c #D89738",
"H  c #D69B3B",
"J  c #DA9938",
"K  c #E19E36",
"L  c #DCA03A",
"P  c #E5A135",
"I  c #EAA534",
"U  c #EEA934",
"Y  c #E3A439",
"T  c #E6A93A",
"R  c #E9AC39",
"E  c #F2AD33",
"W  c #EEB23B",
"Q  c #F6B133",
"!  c #FAB532",
"~  c #FEBB34",
"^  c #F1B53B",
"/  c #F4BA3D",
"(  c #FEBF39",
")  c #FEC33C",
"_  c #BA8140",
"`  c #ACA259",
"'  c #B3A659",
"]  c #B6A859",
"[  c #BCAC59",
"{  c #C0AF59",
"}  c #C4B259",
"|  c #CBB658",
" . c #CEB958",
".. c #D5BD57",
"X. c #D9BF57",
"o. c #D2BA58",
"O. c #F7BF40",
"+. c #DDC156",
"@. c #F7C040",
"#. c #FDC641",
"$. c #FECA45",
"%. c #FDCE4A",
"&. c #FCD04D",
"*. c #E3C555",
"=. c #E8C754",
"-. c #ECC953",
";. c #F4CD51",
":. c #F9CF50",
">. c #F9D050",
/* pixels */
"0 5 4 4 1 1 6 6 6 6 > > > = > : : : ; ; ; ; ; ; ; ; ; ; ; ; ; , , , , , , , < < < < < q q 7 q q q q ",
"p 0 5 5 4 4 1 1 6 6 6 6 > > > > > : : : : : : : : ; : : ; : , , < , < < < < < < q < < q 8 q q q q q ",
"a p p 3 5 4 4 4 1 1 1 6 6 6 6 6 > > > > > > > > > > > > < < < < < < < 7 < < 8 7 q q q q q w w w w e ",
"j a p p p 3 5 5 c 1 1 1 1 8 6 6 6 6 6 6 6 > > 6 > > > > < 7 < < 7 7 7 7 q 8 8 q 8 q q q w w e e e c ",
"l j j j p p i i i 4 4 1 1 1 1 1 6 1 6 6 6 6 6 6 6 6 6 6 7 7 6 7 8 8 8 8 8 8 9 9 w w 9 e e e c c s s ",
"z h j j j a a c p i i 4 4 4 4 1 1 1 1 6 1 1 1 6 8 6 8 8 q 7 7 q 8 8 8 8 9 9 9 9 e e 5 c c c c s s s ",
"v z h k j j a a p p p p p 4 4 4 4 1 1 4 1 1 1 1 9 8 9 8 8 9 9 8 9 9 9 9 9 e 5 5 e e c c c s d d d d ",
"n b v v z k k j j p p i p p i p i 4 c 4 4 9 c 1 9 9 1 4 9 4 9 9 9 e 5 5 9 e 5 c c c p s d d d d d x ",
"M n b v v h h g g j j a i a p p p p i p i 1 i i 4 c 1 c 1 1 c 1 5 5 5 5 c p s s s d d d d d d d x x ",
"u N M n b v v h h g k j j j a p p p p p p c c i 9 i i p p c i p p c c c c p p a d d d d d l x x x x ",
"C V u M n b b v v h h g j j j j p p a p p i i p p p p p p p p p p p p p p a a d d d d d x x x x m m ",
"A C C u u M n b v v v h h h g f j a a a p p a j p p p p p p p p p a a d a d d d d l x d x x m m m m ",
"F A A C V N u M n b b v h v h g j k k j j j j j j j j j p a a a a j j j j k k k x l x x m m m m _ m ",
"G F A A Z C V u M M n b b v v v h l h l j j j g j j j j j j j j k k j k k k l l x x x x m b b n m _ ",
"K K G A A Z C V V N M M n n b v v v h h h h h h g g g j j j k k k g g l l h h x m m m m m m b b _ m ",
"K K K G G F A A C C V N r N n b v b v v v h h h h h l h h l l l h l h h x x m v v m m b b n n n _ _ ",
"E U I K D G F F A A C C u u y y n b r b b v v v v h h v h h h h z z z z v v v v b b b b n n _ _ B B ",
"! E U I P D G F F A A Z Z C u u N M M n r r r b b v b v v v v v v z b v b v b b b b n M n n M _ V B ",
"! ! ! E U I P D G G F A A A C V V V N M M M r r r b b b b b b b b b b b b b n n n n M M N N _ _ V V ",
"~ ~ ! ! Q U I I K D G F F A A Z C C V V u u u u r M r M n b n b b n n n b n n M M M N N _ _ _ C S V ",
") ~ ~ ~ ! ! Q E I P K D G F F A A A A C V V V u N N N N M M M M y r y n y y y y N N _ _ _ C C C V V ",
") ) ) ~ ~ ! ! ! E U I P K K G F F A A A C A C C V V u V N N N M y u y N y u u V _ _ C _ C C Z Z S S ",
") ) ) ) ~ ~ ~ ! ! Q U U I P K D G G F A A A C C C C C V V V N N u u u u u u V V _ C _ C C Z Z Z S S ",
") ) ) ) ) ) ) ! ! ! Q Q U U I P K G G G F F F A A A A C C C C C C C C C C C V C C C Z Z Z Z A A S G ",
"%.) ) ) ) ) ) ) ) ) ! ! ! Q E U P P K D D G F F A A A A A A C C C C Z C C C C C Z Z Z A A A S S S F ",
"&.&.&.) &.) ) ) ) ) ) ~ ! ! ! ! E U I P K D D G G G F F A A F A A A A A A A Z A A A A A A S S F F F ",
"&.&.&.&.%.) ) ) ) ) ) ) ) ~ ! ! Q Q E U I P P K D D G G F F F F F A F A F A A A A S S F F F F F D H ",
";.>.&.&.%.%.%.%.) ) ) ) ) ~ ) ! ! ! ! Q E U I I K K K D D G G F F F F F F F F F F F F F F G G D D D ",
"*.-.;.;.&.&.%.%.$.) $.) ) ) ) ) ) ! ~ ! ! Q E U I I I K K K D D D G G G G G F G G F G G D D D D D K ",
"+.+.*.-.>.&.&.%.$.$.$.) ) ) ) ) ) ~ ) ~ ! ~ ! ! E E U I P P P K P K D D D D D D D D D D D D D D K K ",
" .o.+.+.-.-.>.&.&.&.%.$.$.$.) ) ) ) ) ~ ~ ~ ! ! ! Q Q Q U U P P P P P P K K K K K D K K K K K K P P ",
"+.o.| +.+.*.-.;.&.&.&.&.$.$.) ) ) ) ) ) ) ~ ~ ~ ! ! Q Q E U U I U U P I I P P P P P P P K P I I I I ",
"+.+.o.|  .+.+.+.-.;.>.>.&.&.$.$.) ) ) ) ) ) ) ) ) ) ) ! ~ ! ! ! Q Q E U E U U I I I I I I I I U U U ",
";.*.+.o.| | | +.+.*.-.;.>.&.&.$.&.) &.) ) ) ) ) ) ) ~ ) ~ ~ ! ~ ! ! Q Q Q Q E U U E U U U U U U E E ",
"&.;.-.+.+.| | | o.+.+.*.-.;.>.&.&.%.&.) &.%.) ) ) ) ) ) ) ) ) ) ~ ! ! ! ! ! ! ! Q Q E E E E E E Q Q ",
"$.%.>.;.*.+. .} | | o.+.+.=.-.>.>.&.&.%.&.) %.) ) ) ) ) ) ) ) ) ~ ~ ~ ~ ! ~ ! ! ! ! ! ! ! Q ! ! ! ! ",
") %.>.>.;.=.+.+.| [ |  .+.+.+.=.-.;.>.>.&.%.%.$.) ) ) ) ) ) ) ) ) ~ ) ) ) ~ ~ ~ ~ ~ ~ ~ ! ! ~ ! ! ! ",
"/ ) #.%.%.>.-.*.+.+.} [ } | +.+.+.*.-.>.>.&.&.%.&.) &.) ) ) ) ) ) ) ) ) ) ~ ~ ~ ~ ~ ~ ~ ! ! ~ ~ ~ ~ ",
"R ^ ) ) ) &.>.;.*.+.+.[ } [ [  .+.+.+.=.;.;.>.>.&.%.) &.&.) ) ) ) ) ) ) ) ~ ) ~ ~ ~ ~ ~ ~ ~ ~ ~ ~ ~ ",
"H Y W / ) @.%.%.>.-.+.+.+.| [ [ } } +.+.+.=.-.-.&.&.&.&.&.&.&.) ) ) ) ) ) ) ) ) ) ~ ~ ) ~ ~ ~ ~ ) ~ ",
"B S L R T ) ) ) &.&.-.-.+...| [ [ [ | +.| +.+.+.-.-.;.>.&.&.%.%.$.$.$.) ) ) %.) ) ) ) ) ) ) ) ) ) ) ",
"f t V S L T ) ) @.%.%.;.;.*.+.o.} [ [ [ [ [ +.+.+.*.=.=.>.>.&.&.%.%.&.$.&.%.) ) ) ) ) ) ) ) ) ) ) ) ",
"= 3 g t B H U ^ / @.$.%.&.>.-.+.+.} [ [ [ [ } | +.+.+.+.=.-.;.>.&.&.&.&.&.$.%.) ) ) $.) ) ) ) ) ) ) ",
"O # - w f B V H T W / ) #.$.&.;.-.+.+.} [ [ [ [ [ [ +.+.+.+.+.+.>.&.&.&.&.&.&.) ) %.$.$.$.) ) ) %.) ",
"    O $ * i h B V L T W / @.$.%.>.-.=.+.+.[ [ ] ] [ [ } +.+.+.+.=.=.-.;.;.&.&.&.%.%.%.%.%.$.$.$.) ) ",
"      . O % * i z B A L T W O.@.$.>.>.-.+.+.+.[ [ ` ' ] [ [ [ +.+.+.*.*.-.-.;.>.&.&.&.&.%.%.$.$.%.) ",
"          . o % * i z B S H T W ) @.%.;.-.-.*.+.} ' [ ' ` ] [ [ } | +.+.+.*.=.-.;.>.&.&.&.&.%.%.%.%.",
"              . O $ * 3 g B S L L R ) ) $.%.>.-.+.+.+.[ ] ' ` ` ] [ [ } | +.+.*.*.-.;.&.&.&.&.&.&.&.",
"                    . # = 2 g B Z H R W ) ) ;.%.-.=.*.+.} [ ` ` ` ` ` ] [ } +.| +.+.+.+.*.-.;.;.>.&.",
"                        X @ & 2 f B V H Y W ) ) ) -.;.-.+.+.+.[ ] ` ` ` ` ] [ [ } | +.+.+.+.*.-.-.;."
};
