/* XPM */
static char *mur_22[] = {
/* columns rows colors chars-per-pixel */
"50 50 26 1 ",
"  c #6EA675",
". c #6FA875",
"X c #73AC76",
"o c #73AD78",
"O c #76B076",
"+ c #7CB477",
"@ c #7CB578",
"# c #80B776",
"$ c #83BA77",
"% c #89BE77",
"& c #84BC79",
"* c #88BF7A",
"= c #8BC277",
"- c #8CC379",
"; c #91C77A",
": c #95CA7C",
"> c #99CE7D",
", c #9CD17E",
"< c #A0D47F",
"1 c #9ED381",
"2 c #A1D681",
"3 c #A4DA84",
"4 c #A9DF86",
"5 c #A8DE88",
"6 c #AAE187",
"7 c #ACE389",
/* pixels */
"777777777776666666636<66,66<6<6<<<<<<<<<<<<<<<<,<<",
"7777777766666366536366<66<<6<<<<<<<<<<<<<<<<<<,<,,",
"766666776533336333336,33,,6<6<<6<<<<<<<<<<<<<,,,,,",
"765554445365353333331613<6,,<<<<<<<,<<<<<<<<,,,>,,",
"5555533553363613313313312222<3<2<<<,<<><<<,,,>>>>,",
"3535333333131131131311111112<<1<<<><>><><<,>,>,,>>",
"533333333331311113111311,11,,,,,>>><>>>><>>>>>>=>>",
"233322223113111111111111,1,,,,,,<>>>>>>>,,>>>>>>>>",
"2151111111111111111,,,,>,,,,>,>>>>>>>>>>>>>>:>>:>=",
"12111111111111:1>,>,>,>>>,>>>>>>>>>>>::>::::::>:=>",
"111111*11111111->1,,>>>>>>>>:>>>>>:::>>>:::::::;==",
"111111111111;1;1:1,>,>>>>>>::>:>=>>:=>=>:::::;;;>>",
"11111111*1*11111>1:1>>:>>:>::>::::::::=::::=;;;;=>",
"1111&1111111&1&1>:::>:>::::::::;::::=:::=::==;;;==",
"11**1&11**111111:::::::::::::;;;:=:::==:=:=:;;;-==",
"1111111*111*1&&1:::::::;:;;:;;;:::==:::=:=:=;====>",
"*11&1&-1-1-1-1--:1-::::;;;;;;;;:;;;;;=-;-;=======%",
"11*1-11-1-1---11:::-;;;;;;;;;-;;;;=;;-=;;=======%%",
"1&-11&11-11-1-1---;;;;;;;;;;;;-;;-===;==-=======%%",
"&11@11---*-1--;;-1:------;-;-;---===========$==$%%",
"11*-1--1-*-1;-;;-;-------==-==----=-=======$=$==%%",
"&-&1;;---1-&-@--------------====--$-$=$=$=-$$=$=%#",
"&1--;---1----1-----------=----==-$&==$=$==$==$$$%#",
"--------@----&-----*-----&&-&-@=*-$$-&$=@=$$$$$=#%",
"--------1@&-----@1&-----&-$-=&-$=$$$=$$$%%%%#%%#%#",
"@1@11@1&-&-&-&&@&&--@-@=-&-&@-$&$$$=$$=$##########",
"-1@---@&1@&--@@1&--&1@&&&&--$-=@$==$$$$$###%#%####",
"@--@*&-&****@1-&&&&&-@=&&$@$$$@=$$$$$$$$%#########",
"@@**&1@@@-@@--@=&1O@@=@-=+=@$=@=$$$$++$++$########",
"11&&*&1&@11@@@-=&&&&===@@=+=&@@@$$$#$=++##$+##+###",
"O@*&&@O@-@@1-@=@&&&&$@$$@=@@@@$@#####+#=+$+###+###",
"&&&&&O1@&@@@@-@=@&&@@=@$@+=@$=+$###$+#++$+#+#O#+##",
"@&&&&&@*&@&@&&@&@$$$$@$@@@@$+$++$$+@@@@+#+++#+++O#",
"&&&&&&*@@*&&&@@&$$@@@$$@&$@@+++$++$++++##+++++++#O",
"&&@&&@&&@@&@@&&@@$@$$$@$&@$@+$+@++@+++++++++++++O#",
"@@&@@&@&@&@&&@&@@$@@@@@@@@@@@@@@+@@+@++++++OO+OO#O",
"@@&@@@@@&@&@@@@@@@$@@@@@++@@@++O+@@@++++++OOO+OOOO",
"@&&@&@@@@@@@@@@@@@@@+@@@@@@@O@+@@@O@+OOOOOOOOOOOOO",
"&@@@@@@@@@@@@@@@@O@O@O@O@@O@O@OOO@O@OOOOOOOOXOOOXO",
"@@@@@@@@@@@o@@@@@OO@O@@OOOOOOOO@OOOOOOOOOOOXXOOOOO",
"@@o@@@@O@o@o@@o@OOO@O@OOOOOOOOOOOOOOOOOOXO+XXXOOXX",
"o@@@@@O@o@@@o@@oOOOOOOOOOOOOOOOOOOOOOOO..OXXXXO.XX",
"@O@ooOOO@@@@o@ooOOOOOOOOOOOOOOXOXXXOXX.O.XXXXX.XO.",
"@o@OOOOOoooo@oo@oOOoOOooOOXOXXXXOXO.XXOOXX.XXX.X.O",
"OoOOOOOOoOoOooooOoOOXOOoOXOXoooXXXXX.O..O... X X..",
"OOOoOoooooOoooooooO.XXXXOXXXoooXX.XXO.O...O.X   ..",
"oOOoOoOOooooooooooooOoXOXXXX.oooXX.XO.O..... X  ..",
"OooooooooooooooooooooooXXXXXo..o..X....... X  X   ",
"ooooooooo.oo.oooooooooo.o.ooo.o.....O.... ....  . ",
"ooooooo.oo.o.oooo..o...o.o..o.......      ..      "
};
