/* XPM */
static char *mur_70[] = {
/* columns rows colors chars-per-pixel */
"50 50 161 2 ",
"   c #01192D",
".  c #02182D",
"X  c #01192E",
"o  c #01192F",
"O  c #02192E",
"+  c #03192E",
"@  c #03192F",
"#  c #011A2F",
"$  c #021A2E",
"%  c #021A2F",
"&  c #011930",
"*  c #031830",
"=  c #021930",
"-  c #031930",
";  c #031931",
":  c #011A30",
">  c #011B31",
",  c #021A30",
"<  c #031A30",
"1  c #021B30",
"2  c #021A31",
"3  c #031A31",
"4  c #021B31",
"5  c #031B31",
"6  c #021B32",
"7  c #031B32",
"8  c #041A30",
"9  c #011C31",
"0  c #021C31",
"q  c #031C31",
"w  c #021D31",
"e  c #021C32",
"r  c #031C32",
"t  c #021D32",
"y  c #031D32",
"u  c #021C33",
"i  c #021D33",
"p  c #031D33",
"a  c #031E32",
"s  c #021E33",
"d  c #031E33",
"f  c #021C34",
"g  c #031C34",
"h  c #021D34",
"j  c #031D34",
"k  c #031D35",
"l  c #021E34",
"z  c #031E34",
"x  c #021F34",
"c  c #031F34",
"v  c #021E35",
"b  c #031E35",
"n  c #021F35",
"m  c #031F35",
"M  c #031F36",
"N  c #041D34",
"B  c #041D35",
"V  c #041E34",
"C  c #041E35",
"Z  c #032035",
"A  c #022036",
"S  c #032036",
"D  c #022136",
"F  c #032037",
"G  c #022137",
"H  c #022237",
"J  c #032237",
"K  c #042035",
"L  c #042036",
"P  c #042037",
"I  c #022038",
"U  c #032038",
"Y  c #022138",
"T  c #032138",
"R  c #022039",
"E  c #032039",
"W  c #022139",
"Q  c #032139",
"!  c #022239",
"~  c #032239",
"^  c #022339",
"/  c #032339",
"(  c #02203A",
")  c #03213A",
"_  c #01233A",
"`  c #02223A",
"'  c #03223A",
"]  c #02233A",
"[  c #03233A",
"{  c #03233B",
"}  c #042038",
"|  c #042139",
" . c #04223A",
".. c #04233A",
"X. c #04233B",
"o. c #02243A",
"O. c #03243A",
"+. c #02243B",
"@. c #03243B",
"#. c #02253B",
"$. c #03253B",
"%. c #04243A",
"&. c #04243B",
"*. c #04253B",
"=. c #02233C",
"-. c #03233C",
";. c #04233C",
":. c #02243C",
">. c #03243C",
",. c #02253C",
"<. c #03253C",
"1. c #02243D",
"2. c #03243D",
"3. c #02253D",
"4. c #03253D",
"5. c #03263C",
"6. c #02243E",
"7. c #02253E",
"8. c #03253E",
"9. c #02263E",
"0. c #03263E",
"q. c #02273E",
"w. c #02263F",
"e. c #03263F",
"r. c #02273F",
"t. c #03273F",
"y. c #04243C",
"u. c #04243D",
"i. c #04253D",
"p. c #04253E",
"a. c #04253F",
"s. c #04263E",
"d. c #04263F",
"f. c #032740",
"g. c #032741",
"h. c #042740",
"j. c #042742",
"k. c #032841",
"l. c #032842",
"z. c #042840",
"x. c #042940",
"c. c #042841",
"v. c #042941",
"b. c #052941",
"n. c #042842",
"m. c #042942",
"M. c #052942",
"N. c #042843",
"B. c #042943",
"V. c #052943",
"C. c #042A43",
"Z. c #052A43",
"A. c #032A44",
"S. c #032B44",
"D. c #042944",
"F. c #042A44",
"G. c #052A44",
"H. c #052B44",
"J. c #032C45",
"K. c #042C45",
"L. c #0A2B43",
/* pixels */
"B.B.B.B.j.j.B.B.B.B.B.B.B.B.B.B.B.l.l.l.B.B.B.B.B.B.B.B.B.D.L.B.B.Z.Z.Z.Z.Z.K.B.K.K.B.K.S.S.J.K.J.J.",
"B.j.j.B.B.B.d.B.D.B.l.l.B.B.B.l.l.l.l.B.B.L.B.B.B.B.B.B.B.L.B.B.B.B.B.B.l.Z.l.Z.B.D.D.L.Z.Z.S.B.B.K.",
"j.B.B.j.B.B.B.B.N.j.f.f.j.B.f.l.B.B.B.B.B.t.t.B.B.B.B.B.B.B.B.B.B.B.B.B.B.B.B.B.B.B.B.D.Z.B.B.B.B.B.",
"t.t.d.B.j.d.B.j.N.f.f.t.f.f.B.d.d.t.B.t.B.t.B.B.B.t.B.t.t.B.t.B.B.t.B.t.B.l.B.B.B.D.D.B.B.B.B.B.D.K.",
"t.t.t.f.d.t.t.t.t.f.t.t.t.t.d.j.t.t.d.d.d.B.B.t.t.t.L.s.t.Z.B.B.B.B.B.L.B.B.f.B.B.B.B.t.Z.Z.B.B.B.K.",
"t.t.t.f.t.t.t.t.t.t.t.t.t.t.t.t.t.t.d.t.t.d.t.t.t.t.t.t.t.t.B.t.t.B.B.t.d.B.B.B.B.B.B.B.Z.t.B.B.D.B.",
"=.d.=.d.=.t.t.t.t.=.t.d.t.t.f.f.t.t.t.t.t.t.t.t.t.Z.t.t.s.t.t.t.t.t.L.s.t.B.t.B.B.s.L.Z.t.Z.Z.B.Z.B.",
"t.=.d.=.t.t.` t.=.d.=.d.=.t.;.d.t.t.t.t.t.d.t.t.t.t.t.t.B.t.t.s.B.t.t.t.t.t.d.t.t.t.t.t.t.Z.Z.Z.B.B.",
"=.=.j.=.=.=.=.t.=.f.=.j.=.j.=.=.d.=.d.=.t.;.;.t.t.t.t.t.t.t.t.t.t.d.t.t.t.d.t.t.t.t.t.B.B.B.B.B.B.B.",
"=.f.t.=.t.=.t.=.f.=.=.=.f.=.d.t.t.j.=.t.=.d.d.j.d.t.=.t.;.d.t.t.t.j.t.t.t.t.t.t.t.B.t.t.j.B.j.j.B.t.",
"=.=.=.=.=.=.t.` t.=.t.=.=.t.t.t.=.=.=.t.t.=.=.t./ t.t.d.=.t.=.d.t.=.d.j.t.t.t.t.t.s.d.t.t.t.t.t.t.t.",
"d.;.t.=.t.=.` t.=.=.t.=.=.=.=.=.t.=.=.d.=.j.t.=.d.d.t.` t.=.j.=.d.=.d.=.t.t.t.t.t.t.t.t.t.t.=.t.t.t.",
";.;.d. ./ / d. .;.=.t.=.=.=.=.=.=.=.=.f.=.=.t.t./ t./ t./ / t.=.t.=.t.f.=.t.d.d.t.s.d.d.=.d.d.t.t./ ",
"` ;./ / d./ /  ./ / =.=.=.t.t.d.=.f.=.=.t./ =.=.t./ t. .d.d.` t.=.t.=.=.d.d.d.d.s.t.d.d.d.d.=.d.d.d.",
" .` / ` ` / / d.d.` / d.` ` / /  .d.=.;.=.d.=.t./ / / d.t./ / t.=.=.t.=.=.d.t.=.t.d.d./ t.=.t.t.d.;.",
"` ` ` /  .` / / `  ./ / / d.d./  . .d.=.` t./ / / t.d./  .` =.` =.d.=.t.=.t.=.=.=.=.t.d.=.t.=.=.t.t.",
"`  . .` ` =.;.=.`  ./ / ` d. .` / t.`  ./ d. .d. ./ / / / / d.d.d. ./ / / d.=.t.` =.=.t.t.t.=.t.t.t.",
"M ` M =. .=.M ;. .` t./  ./ /  ./ /  .` / / / / / / `  .d./ /  .d./ d. . .d.d. .=.t.t.=.t./ t.` ` ` ",
"M ` ` M M ` =.M S  ./ ` ` S =.` ` / ` / `  .`  ./ =./ ` / / / d. .` / / / d./ d.` t.=.` / t./ t.=.=.",
"M M M =.M M M =. .` S  .` ` M =.`  .J ` `  .` `  ./ / d./ `  . .` t./ / / / d. ./ t./ / / t./ / ` t.",
"=.M M M =.M =.M M ` ` ` M M =.M S S M ` ` M M ;. . .`  . . .`  . .` S ` `  ./  ./ d./ t. ./ / d.` d.",
"M =.M =.M M M =.M M M M ` M M ` ` ` M M M ` ` ;.` M  .`  .`  .` ` ` ` / ` t./ ` ` ` / / / /  . ./ / ",
"M =.=.M =.M M M M ` =.M  . .M J S ` ` ` ;.M ;.M  .` ` ` ` ` `  .` ` / / / `  .` ` / ` /  ./ / d./  .",
"M M M M M =.M =.M M ` ` M ` ` ` ` S M ` M =.M =.M M M M  .S ` S S ` ` ` ` ` ` =.J  .` S `  .` /  .` ",
"=.M M M J J M M M M J S S S  .M M ` M  .M ` `  .M ` M M ` ` M =.M ` M M M `  .M M =.M ` ;.;.M  . .` ",
"M M M M V M V J J V V K Z Z M M  .` M M M M M M M ` ` M ` M M M ` ` ` ` M ` M ` ;.M ;. .M M ;.` ` S ",
"M M M s V V J V M J s S Z Z s J M M J M S J J M M M M ` M  .=.M M M S ` ` M ` ` M ` ` M `  .` M ` M ",
"M M M M M J V V s V J V S J J V M M M M M M M M M ` ` M M M M =.` ` M ` M =.` M =.M M  .` M M ` J J ",
"M M M s V s S s s M V M M V M s M S s J M s M J K V K K  .J M M S S ` M M ` M M M ` M M M ` S ` S ` ",
"g 7 s M s M s M M M J V s M s M M V M V M s M M V J V V M M M  .M M M M M S S J M M M ` M J M ` S S ",
"g V s 7 7 M M s M s M M s M s s s K s M s M s s s M V J J M M M J V V J J M J V M M M J J V M M S S ",
"V g M 7 M s M M s M 7 7 g s M s J M V M M s M M s M M V V M V J V V J V M M M M V M M M M M J J J S ",
"7 7 M 7 M s f s f M 7 M 7 M s M s s M s M g M V M M s M M M s s M s M M V M s s M M M s M M s M V M ",
"s s 7 M 7 M M 7 7 7 M 7 M 7 M 7 M 7 V V M g g V s s M s s M M V M V s V M s s M M s M s M V V M M M ",
"7 V s f 7 s 7 M f M 7 M s s 7 7 f M M 7 g M V V M 7 s M V s g g g V g M M V s M V M s M s M s J M s ",
"s s 7 s M 7 7 s M 7 M 7 s s 7 M 7 M 7 s g V g g 7 M g 7 V g M V g g M V g V M M s M M V M s M V M M ",
"s 7 s s # s 7 7 7 s s s 7 s s 7 s V s M s 7 g s M 7 s g 7 M s M M g V V g V 7 f g M g g s s M s s s ",
"s 7 7 s s s s s s 7 s 7 7 M s s V s 7 7 7 7 V s s s s 7 7 7 7 g V g 7 V M 7 M 7 g g V M s M g g M 7 ",
"7 7 s s s s s s s 7 s s 7 7 s s V % 7 s s s V 7 s s s s s s V s g g V g 7 f f M V g 7 M 7 M V 7 7 M ",
"7 # 7 7 7 7 # 7 7 7 % s s s s 7 s s # s s s s s 7 s 7 s s s s g V V V s s f M 7 7 V M 7 M 7 M f M 7 ",
"# 7 7 7 7 7 7 7 7 s s s s s # s # s % s s % # s s s % s s s s s V s V s s 7 s 7 s V s s V s V s s s ",
"s s # s # # 7 # 7 # # 7 # s s # s 7 s 7 # s s # # 7 s s % s % s % s % V s s s s s 7 % s 7 7 s 7 s # ",
"# 7 # 7 7 7 7 7 7 7 # 7 # 7 7 # s # 7 # s 7 s s # s s 7 s s s 7 s s V s 7 s s s s s s 7 # s + s s s ",
"7 # 7 # s # # 7 # 7 s # 7 7 # s # 7 # 7 7 # 7 7 g # # s s % 7 7 V # + g s # # s # 7 # s s 7 7 s s # ",
"# # 7 # X 7 # 7 7 # 7 7 7 # s # # 7 # # 7 # # 7 # + s 7 7 # 7 s # # s # 7 7 % s 7 # 7 7 g # % V s s ",
"# 7 7 # 7 # 7 X # 7 # X # 7 7 7 7 7 7 7 # 7 7 7 g # 7 # 7 # 7 # 7 7 7 7 # 7 s # 7 s # 7 # g # s 7 s ",
"X # # X 7 # * X 7 # # 7 # 7 # # 7 X # # # 7 7 # # # # 7 # 7 7 # # # # # # 7 7 # # # # # 7 s s # 7 # ",
"* * 7 * * X 7 7 7 X # 7 # # # 7 X 7 7 7 7 # X 7 7 7 7 # 7 # 7 7 7 7 7 # # 7 7 # 7 7 7 7 # + # g 7 7 ",
"# 7 g . . g . + # X * X X X g # X # # # 7 # # 7 # # 7 7 X 7 X 7 # # # 7 7 7 # 7 # 7 7 7 7 # 7 7 7 # ",
". X + . . + . # X X * g * . + . X + . X # 7 7 # 7 X # # * X X 7 # 7 7 # X 7 # # 7 7 # # 7 # # # # # "
};
