/* XPM */
static char *mur_89[] = {
/* columns rows colors chars-per-pixel */
"50 45 90 1 ",
"  c #000C19",
". c #010D19",
"X c #020D19",
"o c #000C1A",
"O c #010C1A",
"+ c #010D1A",
"@ c #010D1B",
"# c #020D1A",
"$ c #020D1B",
"% c #000E1B",
"& c #010E1B",
"* c #010F1B",
"= c #020E1A",
"- c #030E1A",
"; c #020D1C",
": c #010E1C",
"> c #000F1C",
", c #010F1C",
"< c #010E1D",
"1 c #000F1D",
"2 c #010F1D",
"3 c #020E1C",
"4 c #030E1C",
"5 c #020F1C",
"6 c #020F1D",
"7 c #010E1E",
"8 c #000F1E",
"9 c #010F1E",
"0 c #000F1F",
"q c #010F1F",
"w c #020F1E",
"e c #020E1F",
"r c #020F1F",
"t c #030F1F",
"y c #02101B",
"u c #00101C",
"i c #01101C",
"p c #00101D",
"a c #01101D",
"s c #02101C",
"d c #02101D",
"f c #00101E",
"g c #00101F",
"h c #01101F",
"j c #02101E",
"k c #03101E",
"l c #02111E",
"z c #02101F",
"x c #03101F",
"c c #011020",
"v c #011120",
"b c #021020",
"n c #031020",
"m c #021120",
"M c #021121",
"N c #011220",
"B c #011221",
"V c #011321",
"C c #021220",
"Z c #021221",
"A c #021321",
"S c #011222",
"D c #011322",
"F c #011323",
"G c #021222",
"H c #021322",
"J c #031322",
"K c #021223",
"L c #021323",
"P c #031323",
"I c #021421",
"U c #011423",
"Y c #021422",
"T c #021423",
"R c #031423",
"E c #021523",
"W c #021324",
"Q c #011524",
"! c #021424",
"~ c #031424",
"^ c #021524",
"/ c #031524",
"( c #021525",
") c #031525",
"_ c #021624",
"` c #031624",
"' c #031625",
"] c #021526",
"[ c #031626",
"{ c #031627",
/* pixels */
"{{{{{{{U''{'''`'{UR`RU'U'RPUUUR{RUR{RUF~~~P'FP~~PF",
"{{{{{{{UR'UR'UU`UU`UUUURPFFUUUUUURURRU'PPF~PPFPFFP",
"{U{U{'U`'R''UUUUU`UUR{{WFPUURUUUPFFFUU'PPFPFFnFPFl",
"FUUUU''`''UUR{R`UU'RUFPPPUR{UURUFPFPURPFFPFPPFPFFP",
"U'U'U'U'UURFURUPR'FFPFP~URFPRU'UPFPFFPlFPFPFPlFlUl",
"'U'U'U'U{~U'UFRFUUPFFPP~UURF'RRRFPFFPFPPFPFPPUFlFF",
"U'R''UUUPFPFRFFPUPFPPRUFURFPP~PPPFFFFPUUPPFFPlPPlP",
"~F'UUUURFPFPFPPFRFPFFPR'PFFPFFPFFPFPFlUUFlPllFlFFl",
"~~FFFFFFPFPFPlFPPFPFFFPFFPFlUFlRFlUUURFlFFFttFcclF",
"FPFPFPlPFPFPFPPFFPFPPlFPPFRUUPRUUURlUllFlllFFwFFlP",
"UlPFFFFUFFFPPFlPPFPFFFFFFURllRlUlUFlFFFlwFFwtllltF",
"RRFPlFFUPRlFFPFFFPFlPFRlRlURUFUlFFlFlllFwFlFlFFlFw",
"FPRUUlUUFPRURlUUPPUlFPFFUlPFRlFUFlFcFwFwFFlFlFwFll",
"UlUlURlUlUUUUUUllURUFllPFFlwlFFllFlFlFwFwllwwFFwwF",
"RlUPRlUURlUUFlUUUllUlFlPlFlFFllFFwwFFwFwwFFwFwwFww",
"URUUlUUllUUllUlUlFUlPFllFlPFlPllwFlwFllwFlwFlwFlFl",
"FlFFFllFFllPFFlFUlFPFFllFllFwlFwFwcwFwwlcFwwwlFwwF",
"FtFnFPFllFwllwFlPlFllwFwwFwFFwwFlwFwwFFlFwwFFwwFlw",
"lPlFlFFFFFFFPFFllPtFFFwFlFwwFwlcwFFclcFFwFFwlFFcFw",
"FlPFPlcFFwlwPlFwFlFllwFwFwlFwFccFlwcFwwwccwwwlwcww",
"nPcPFFwlwwlFFwlFwFwlFwFlwFFcwFwcFwFcFwFlwwwwwwwwww",
"FlFlwFFwlFFwwFFwlwFwwFwwwcwccwccncwcww&&ww&wwwcwwc",
"FwwFFwwFFwwFwlcccwFFlFwwFwcwnnwcccwwww&wwyylwwwwww",
"wFlwlwFlwFlwFwFccFwwFwwFFwtncwcnlwlwwwwlwwlwwwwlww",
"wcwcFwwFcccFwccccccwccwcwwwwcwccwl&&ly&ywlww&wwllw",
"ccwFwFcwcccccccccwwccwcwwcwwwcwtl&llwllw&&wlllyyl&",
"FwlcFccFccncwnnwwctwwcwwwwwwwwwwwl&lywwy&ll&&lyw&&",
"wFFwwcwwccwccwctcwcwcwwwwwwl&www&ll&&lw&lyyyy&&&&y",
"FlFcFwccwcwwwcwcewwwwwllwllywylyw&ylywwlwyyw&&&&&l",
"wwwcwwwccwwecwcwtw&wwl&lyywyl&wll&&&llyyl&y&&l&lly",
"wwwwwwcwwwwwwcwwwlwwyyl&yl&l&w&yl&ly&yyw&&&l&&&y&&",
"wcwwlwwww&ww&w&l&&l&l&llywlwyy&w&ywwlll&&l&&&&l&&l",
"wwwwlw&&&ll&llw&&yll&ywyll&&w&ylll&yl&l&l&&&&&w&&&",
"we&w&lylyw&lwy&yl&&l&lly&&&ly&l&&&&w&&&&&&&&w&w&e#",
"l&&w&&lllllywyl&ywywll&&&&&lyl&lwyyw&l&lw&&w&&&&e#",
"ww&&l&&&&&&&y&w&&wyl&&l&&l&ywly&&&&&&w&&&&&&w&w&##",
"&&lw&y&l&ll&&&lwyl&ywyy&ylllw&l&yw&l&&&&&&#e###w#e",
"&y&&l&&l&&&&l&y&&ww&&&w&y&&&&y&&y&&&&y&ww#e#&tw##e",
"lywl&l&&l&&lwl&l&y&&ywylw&wl&&l&w&ww&&&&#&w#e#####",
"&&&&&&&&&&&y&&&&w&&l&&&w&y&&l&&&&y&&&w&##w###e####",
"&&y&y&&&&&&w&w&&&&&&&l&y&w&&w##w#e##e#####e###e##w",
"y&www&ww&&&yy&&yw&&w&&w&&&&##w#w########e####o##&#",
"&y&&&&&&&&&&&w&&&w&w&&yy&&#ew####e##  ######o##e##",
"l&&w&&-&&&ywy&&&-&&&l&w&&&#e#### ##############o#&",
"&&l&--t&ty&&w&&t$-t$t-&e&&-#&&#-  ##$$XXXX  ##  # "
};
